<svg width="128" height="184" viewBox="0 0 128 184" fill="none" xmlns="http://www.w3.org/2000/svg">
<path d="M-54 4C-52.8954 4 -52 3.10457 -52 2C-52 0.895431 -52.8954 0 -54 0C-55.1046 0 -56 0.895431 -56 2C-56 3.10457 -55.1046 4 -54 4Z" fill="white"/>
<path d="M-54 84C-52.8954 84 -52 83.1046 -52 82C-52 80.8954 -52.8954 80 -54 80C-55.1046 80 -56 80.8954 -56 82C-56 83.1046 -55.1046 84 -54 84Z" fill="white"/>
<path d="M-52 42C-52 43.1046 -52.8954 44 -54 44C-55.1046 44 -56 43.1046 -56 42C-56 40.8954 -55.1046 40 -54 40C-52.8954 40 -52 40.8954 -52 42Z" fill="white"/>
<path d="M-54 124C-52.8954 124 -52 123.105 -52 122C-52 120.895 -52.8954 120 -54 120C-55.1046 120 -56 120.895 -56 122C-56 123.105 -55.1046 124 -54 124Z" fill="white"/>
<path d="M-52 182C-52 183.105 -52.8954 184 -54 184C-55.1046 184 -56 183.105 -56 182C-56 180.895 -55.1046 180 -54 180C-52.8954 180 -52 180.895 -52 182Z" fill="white"/>
<path d="M-54 24C-52.8954 24 -52 23.1046 -52 22C-52 20.8954 -52.8954 20 -54 20C-55.1046 20 -56 20.8954 -56 22C-56 23.1046 -55.1046 24 -54 24Z" fill="white"/>
<path d="M-52 102C-52 103.105 -52.8954 104 -54 104C-55.1046 104 -56 103.105 -56 102C-56 100.895 -55.1046 100 -54 100C-52.8954 100 -52 100.895 -52 102Z" fill="white"/>
<path d="M-54 164C-52.8954 164 -52 163.105 -52 162C-52 160.895 -52.8954 160 -54 160C-55.1046 160 -56 160.895 -56 162C-56 163.105 -55.1046 164 -54 164Z" fill="white"/>
<path d="M-52 62C-52 63.1046 -52.8954 64 -54 64C-55.1046 64 -56 63.1046 -56 62C-56 60.8954 -55.1046 60 -54 60C-52.8954 60 -52 60.8954 -52 62Z" fill="white"/>
<path d="M-54 144C-52.8954 144 -52 143.105 -52 142C-52 140.895 -52.8954 140 -54 140C-55.1046 140 -56 140.895 -56 142C-56 143.105 -55.1046 144 -54 144Z" fill="white"/>
<path d="M28 2C28 3.10457 27.1046 4 26 4C24.8954 4 24 3.10457 24 2C24 0.895431 24.8954 0 26 0C27.1046 0 28 0.895431 28 2Z" fill="white"/>
<path d="M26 84C27.1046 84 28 83.1046 28 82C28 80.8954 27.1046 80 26 80C24.8954 80 24 80.8954 24 82C24 83.1046 24.8954 84 26 84Z" fill="white"/>
<path d="M28 42C28 43.1046 27.1046 44 26 44C24.8954 44 24 43.1046 24 42C24 40.8954 24.8954 40 26 40C27.1046 40 28 40.8954 28 42Z" fill="white"/>
<path d="M26 124C27.1046 124 28 123.105 28 122C28 120.895 27.1046 120 26 120C24.8954 120 24 120.895 24 122C24 123.105 24.8954 124 26 124Z" fill="white"/>
<path d="M28 182C28 183.105 27.1046 184 26 184C24.8954 184 24 183.105 24 182C24 180.895 24.8954 180 26 180C27.1046 180 28 180.895 28 182Z" fill="white"/>
<path d="M26 24C27.1046 24 28 23.1046 28 22C28 20.8954 27.1046 20 26 20C24.8954 20 24 20.8954 24 22C24 23.1046 24.8954 24 26 24Z" fill="white"/>
<path d="M28 102C28 103.105 27.1046 104 26 104C24.8954 104 24 103.105 24 102C24 100.895 24.8954 100 26 100C27.1046 100 28 100.895 28 102Z" fill="white"/>
<path d="M26 164C27.1046 164 28 163.105 28 162C28 160.895 27.1046 160 26 160C24.8954 160 24 160.895 24 162C24 163.105 24.8954 164 26 164Z" fill="white"/>
<path d="M28 62C28 63.1046 27.1046 64 26 64C24.8954 64 24 63.1046 24 62C24 60.8954 24.8954 60 26 60C27.1046 60 28 60.8954 28 62Z" fill="white"/>
<path d="M26 144C27.1046 144 28 143.105 28 142C28 140.895 27.1046 140 26 140C24.8954 140 24 140.895 24 142C24 143.105 24.8954 144 26 144Z" fill="white"/>
<path d="M-12 2C-12 3.10457 -12.8954 4 -14 4C-15.1046 4 -16 3.10457 -16 2C-16 0.895431 -15.1046 0 -14 0C-12.8954 0 -12 0.895431 -12 2Z" fill="white"/>
<path d="M-14 84C-12.8954 84 -12 83.1046 -12 82C-12 80.8954 -12.8954 80 -14 80C-15.1046 80 -16 80.8954 -16 82C-16 83.1046 -15.1046 84 -14 84Z" fill="white"/>
<path d="M-12 42C-12 43.1046 -12.8954 44 -14 44C-15.1046 44 -16 43.1046 -16 42C-16 40.8954 -15.1046 40 -14 40C-12.8954 40 -12 40.8954 -12 42Z" fill="white"/>
<path d="M-14 124C-12.8954 124 -12 123.105 -12 122C-12 120.895 -12.8954 120 -14 120C-15.1046 120 -16 120.895 -16 122C-16 123.105 -15.1046 124 -14 124Z" fill="white"/>
<path d="M-12 182C-12 183.105 -12.8954 184 -14 184C-15.1046 184 -16 183.105 -16 182C-16 180.895 -15.1046 180 -14 180C-12.8954 180 -12 180.895 -12 182Z" fill="white"/>
<path d="M-14 24C-12.8954 24 -12 23.1046 -12 22C-12 20.8954 -12.8954 20 -14 20C-15.1046 20 -16 20.8954 -16 22C-16 23.1046 -15.1046 24 -14 24Z" fill="white"/>
<path d="M-12 102C-12 103.105 -12.8954 104 -14 104C-15.1046 104 -16 103.105 -16 102C-16 100.895 -15.1046 100 -14 100C-12.8954 100 -12 100.895 -12 102Z" fill="white"/>
<path d="M-14 164C-12.8954 164 -12 163.105 -12 162C-12 160.895 -12.8954 160 -14 160C-15.1046 160 -16 160.895 -16 162C-16 163.105 -15.1046 164 -14 164Z" fill="white"/>
<path d="M-12 62C-12 63.1046 -12.8954 64 -14 64C-15.1046 64 -16 63.1046 -16 62C-16 60.8954 -15.1046 60 -14 60C-12.8954 60 -12 60.8954 -12 62Z" fill="white"/>
<path d="M-14 144C-12.8954 144 -12 143.105 -12 142C-12 140.895 -12.8954 140 -14 140C-15.1046 140 -16 140.895 -16 142C-16 143.105 -15.1046 144 -14 144Z" fill="white"/>
<path d="M68 2C68 3.10457 67.1046 4 66 4C64.8954 4 64 3.10457 64 2C64 0.895431 64.8954 0 66 0C67.1046 0 68 0.895431 68 2Z" fill="white"/>
<path d="M66 84C67.1046 84 68 83.1046 68 82C68 80.8954 67.1046 80 66 80C64.8954 80 64 80.8954 64 82C64 83.1046 64.8954 84 66 84Z" fill="white"/>
<path d="M68 42C68 43.1046 67.1046 44 66 44C64.8954 44 64 43.1046 64 42C64 40.8954 64.8954 40 66 40C67.1046 40 68 40.8954 68 42Z" fill="white"/>
<path d="M66 124C67.1046 124 68 123.105 68 122C68 120.895 67.1046 120 66 120C64.8954 120 64 120.895 64 122C64 123.105 64.8954 124 66 124Z" fill="white"/>
<path d="M68 182C68 183.105 67.1046 184 66 184C64.8954 184 64 183.105 64 182C64 180.895 64.8954 180 66 180C67.1046 180 68 180.895 68 182Z" fill="white"/>
<path d="M66 24C67.1046 24 68 23.1046 68 22C68 20.8954 67.1046 20 66 20C64.8954 20 64 20.8954 64 22C64 23.1046 64.8954 24 66 24Z" fill="white"/>
<path d="M68 102C68 103.105 67.1046 104 66 104C64.8954 104 64 103.105 64 102C64 100.895 64.8954 100 66 100C67.1046 100 68 100.895 68 102Z" fill="white"/>
<path d="M66 164C67.1046 164 68 163.105 68 162C68 160.895 67.1046 160 66 160C64.8954 160 64 160.895 64 162C64 163.105 64.8954 164 66 164Z" fill="white"/>
<path d="M68 62C68 63.1046 67.1046 64 66 64C64.8954 64 64 63.1046 64 62C64 60.8954 64.8954 60 66 60C67.1046 60 68 60.8954 68 62Z" fill="white"/>
<path d="M66 144C67.1046 144 68 143.105 68 142C68 140.895 67.1046 140 66 140C64.8954 140 64 140.895 64 142C64 143.105 64.8954 144 66 144Z" fill="white"/>
<path d="M108 2C108 3.10457 107.105 4 106 4C104.895 4 104 3.10457 104 2C104 0.895431 104.895 0 106 0C107.105 0 108 0.895431 108 2Z" fill="white"/>
<path d="M106 84C107.105 84 108 83.1046 108 82C108 80.8954 107.105 80 106 80C104.895 80 104 80.8954 104 82C104 83.1046 104.895 84 106 84Z" fill="white"/>
<path d="M108 42C108 43.1046 107.105 44 106 44C104.895 44 104 43.1046 104 42C104 40.8954 104.895 40 106 40C107.105 40 108 40.8954 108 42Z" fill="white"/>
<path d="M106 124C107.105 124 108 123.105 108 122C108 120.895 107.105 120 106 120C104.895 120 104 120.895 104 122C104 123.105 104.895 124 106 124Z" fill="white"/>
<path d="M108 182C108 183.105 107.105 184 106 184C104.895 184 104 183.105 104 182C104 180.895 104.895 180 106 180C107.105 180 108 180.895 108 182Z" fill="white"/>
<path d="M106 24C107.105 24 108 23.1046 108 22C108 20.8954 107.105 20 106 20C104.895 20 104 20.8954 104 22C104 23.1046 104.895 24 106 24Z" fill="white"/>
<path d="M108 102C108 103.105 107.105 104 106 104C104.895 104 104 103.105 104 102C104 100.895 104.895 100 106 100C107.105 100 108 100.895 108 102Z" fill="white"/>
<path d="M106 164C107.105 164 108 163.105 108 162C108 160.895 107.105 160 106 160C104.895 160 104 160.895 104 162C104 163.105 104.895 164 106 164Z" fill="white"/>
<path d="M108 62C108 63.1046 107.105 64 106 64C104.895 64 104 63.1046 104 62C104 60.8954 104.895 60 106 60C107.105 60 108 60.8954 108 62Z" fill="white"/>
<path d="M106 144C107.105 144 108 143.105 108 142C108 140.895 107.105 140 106 140C104.895 140 104 140.895 104 142C104 143.105 104.895 144 106 144Z" fill="white"/>
<path d="M-32 2C-32 3.10457 -32.8954 4 -34 4C-35.1046 4 -36 3.10457 -36 2C-36 0.895431 -35.1046 0 -34 0C-32.8954 0 -32 0.895431 -32 2Z" fill="white"/>
<path d="M-34 84C-32.8954 84 -32 83.1046 -32 82C-32 80.8954 -32.8954 80 -34 80C-35.1046 80 -36 80.8954 -36 82C-36 83.1046 -35.1046 84 -34 84Z" fill="white"/>
<path d="M-32 42C-32 43.1046 -32.8954 44 -34 44C-35.1046 44 -36 43.1046 -36 42C-36 40.8954 -35.1046 40 -34 40C-32.8954 40 -32 40.8954 -32 42Z" fill="white"/>
<path d="M-34 124C-32.8954 124 -32 123.105 -32 122C-32 120.895 -32.8954 120 -34 120C-35.1046 120 -36 120.895 -36 122C-36 123.105 -35.1046 124 -34 124Z" fill="white"/>
<path d="M-32 182C-32 183.105 -32.8954 184 -34 184C-35.1046 184 -36 183.105 -36 182C-36 180.895 -35.1046 180 -34 180C-32.8954 180 -32 180.895 -32 182Z" fill="white"/>
<path d="M-34 24C-32.8954 24 -32 23.1046 -32 22C-32 20.8954 -32.8954 20 -34 20C-35.1046 20 -36 20.8954 -36 22C-36 23.1046 -35.1046 24 -34 24Z" fill="white"/>
<path d="M-32 102C-32 103.105 -32.8954 104 -34 104C-35.1046 104 -36 103.105 -36 102C-36 100.895 -35.1046 100 -34 100C-32.8954 100 -32 100.895 -32 102Z" fill="white"/>
<path d="M-34 164C-32.8954 164 -32 163.105 -32 162C-32 160.895 -32.8954 160 -34 160C-35.1046 160 -36 160.895 -36 162C-36 163.105 -35.1046 164 -34 164Z" fill="white"/>
<path d="M-32 62C-32 63.1046 -32.8954 64 -34 64C-35.1046 64 -36 63.1046 -36 62C-36 60.8954 -35.1046 60 -34 60C-32.8954 60 -32 60.8954 -32 62Z" fill="white"/>
<path d="M-34 144C-32.8954 144 -32 143.105 -32 142C-32 140.895 -32.8954 140 -34 140C-35.1046 140 -36 140.895 -36 142C-36 143.105 -35.1046 144 -34 144Z" fill="white"/>
<path d="M48 2C48 3.10457 47.1046 4 46 4C44.8954 4 44 3.10457 44 2C44 0.895431 44.8954 0 46 0C47.1046 0 48 0.895431 48 2Z" fill="white"/>
<path d="M46 84C47.1046 84 48 83.1046 48 82C48 80.8954 47.1046 80 46 80C44.8954 80 44 80.8954 44 82C44 83.1046 44.8954 84 46 84Z" fill="white"/>
<path d="M48 42C48 43.1046 47.1046 44 46 44C44.8954 44 44 43.1046 44 42C44 40.8954 44.8954 40 46 40C47.1046 40 48 40.8954 48 42Z" fill="white"/>
<path d="M46 124C47.1046 124 48 123.105 48 122C48 120.895 47.1046 120 46 120C44.8954 120 44 120.895 44 122C44 123.105 44.8954 124 46 124Z" fill="white"/>
<path d="M48 182C48 183.105 47.1046 184 46 184C44.8954 184 44 183.105 44 182C44 180.895 44.8954 180 46 180C47.1046 180 48 180.895 48 182Z" fill="white"/>
<path d="M46 24C47.1046 24 48 23.1046 48 22C48 20.8954 47.1046 20 46 20C44.8954 20 44 20.8954 44 22C44 23.1046 44.8954 24 46 24Z" fill="white"/>
<path d="M48 102C48 103.105 47.1046 104 46 104C44.8954 104 44 103.105 44 102C44 100.895 44.8954 100 46 100C47.1046 100 48 100.895 48 102Z" fill="white"/>
<path d="M46 164C47.1046 164 48 163.105 48 162C48 160.895 47.1046 160 46 160C44.8954 160 44 160.895 44 162C44 163.105 44.8954 164 46 164Z" fill="white"/>
<path d="M48 62C48 63.1046 47.1046 64 46 64C44.8954 64 44 63.1046 44 62C44 60.8954 44.8954 60 46 60C47.1046 60 48 60.8954 48 62Z" fill="white"/>
<path d="M46 144C47.1046 144 48 143.105 48 142C48 140.895 47.1046 140 46 140C44.8954 140 44 140.895 44 142C44 143.105 44.8954 144 46 144Z" fill="white"/>
<path d="M8 2C8 3.10457 7.10457 4 6 4C4.89543 4 4 3.10457 4 2C4 0.895431 4.89543 0 6 0C7.10457 0 8 0.895431 8 2Z" fill="white"/>
<path d="M6 84C7.10457 84 8 83.1046 8 82C8 80.8954 7.10457 80 6 80C4.89543 80 4 80.8954 4 82C4 83.1046 4.89543 84 6 84Z" fill="white"/>
<path d="M8 42C8 43.1046 7.10457 44 6 44C4.89543 44 4 43.1046 4 42C4 40.8954 4.89543 40 6 40C7.10457 40 8 40.8954 8 42Z" fill="white"/>
<path d="M6 124C7.10457 124 8 123.105 8 122C8 120.895 7.10457 120 6 120C4.89543 120 4 120.895 4 122C4 123.105 4.89543 124 6 124Z" fill="white"/>
<path d="M8 182C8 183.105 7.10457 184 6 184C4.89543 184 4 183.105 4 182C4 180.895 4.89543 180 6 180C7.10457 180 8 180.895 8 182Z" fill="white"/>
<path d="M6 24C7.10457 24 8 23.1046 8 22C8 20.8954 7.10457 20 6 20C4.89543 20 4 20.8954 4 22C4 23.1046 4.89543 24 6 24Z" fill="white"/>
<path d="M8 102C8 103.105 7.10457 104 6 104C4.89543 104 4 103.105 4 102C4 100.895 4.89543 100 6 100C7.10457 100 8 100.895 8 102Z" fill="white"/>
<path d="M6 164C7.10457 164 8 163.105 8 162C8 160.895 7.10457 160 6 160C4.89543 160 4 160.895 4 162C4 163.105 4.89543 164 6 164Z" fill="white"/>
<path d="M8 62C8 63.1046 7.10457 64 6 64C4.89543 64 4 63.1046 4 62C4 60.8954 4.89543 60 6 60C7.10457 60 8 60.8954 8 62Z" fill="white"/>
<path d="M6 144C7.10457 144 8 143.105 8 142C8 140.895 7.10457 140 6 140C4.89543 140 4 140.895 4 142C4 143.105 4.89543 144 6 144Z" fill="white"/>
<path d="M88 2C88 3.10457 87.1046 4 86 4C84.8954 4 84 3.10457 84 2C84 0.895431 84.8954 0 86 0C87.1046 0 88 0.895431 88 2Z" fill="white"/>
<path d="M86 84C87.1046 84 88 83.1046 88 82C88 80.8954 87.1046 80 86 80C84.8954 80 84 80.8954 84 82C84 83.1046 84.8954 84 86 84Z" fill="white"/>
<path d="M88 42C88 43.1046 87.1046 44 86 44C84.8954 44 84 43.1046 84 42C84 40.8954 84.8954 40 86 40C87.1046 40 88 40.8954 88 42Z" fill="white"/>
<path d="M86 124C87.1046 124 88 123.105 88 122C88 120.895 87.1046 120 86 120C84.8954 120 84 120.895 84 122C84 123.105 84.8954 124 86 124Z" fill="white"/>
<path d="M88 182C88 183.105 87.1046 184 86 184C84.8954 184 84 183.105 84 182C84 180.895 84.8954 180 86 180C87.1046 180 88 180.895 88 182Z" fill="white"/>
<path d="M86 24C87.1046 24 88 23.1046 88 22C88 20.8954 87.1046 20 86 20C84.8954 20 84 20.8954 84 22C84 23.1046 84.8954 24 86 24Z" fill="white"/>
<path d="M88 102C88 103.105 87.1046 104 86 104C84.8954 104 84 103.105 84 102C84 100.895 84.8954 100 86 100C87.1046 100 88 100.895 88 102Z" fill="white"/>
<path d="M86 164C87.1046 164 88 163.105 88 162C88 160.895 87.1046 160 86 160C84.8954 160 84 160.895 84 162C84 163.105 84.8954 164 86 164Z" fill="white"/>
<path d="M88 62C88 63.1046 87.1046 64 86 64C84.8954 64 84 63.1046 84 62C84 60.8954 84.8954 60 86 60C87.1046 60 88 60.8954 88 62Z" fill="white"/>
<path d="M86 144C87.1046 144 88 143.105 88 142C88 140.895 87.1046 140 86 140C84.8954 140 84 140.895 84 142C84 143.105 84.8954 144 86 144Z" fill="white"/>
<path d="M128 2C128 3.10457 127.105 4 126 4C124.895 4 124 3.10457 124 2C124 0.895431 124.895 0 126 0C127.105 0 128 0.895431 128 2Z" fill="white"/>
<path d="M126 84C127.105 84 128 83.1046 128 82C128 80.8954 127.105 80 126 80C124.895 80 124 80.8954 124 82C124 83.1046 124.895 84 126 84Z" fill="white"/>
<path d="M128 42C128 43.1046 127.105 44 126 44C124.895 44 124 43.1046 124 42C124 40.8954 124.895 40 126 40C127.105 40 128 40.8954 128 42Z" fill="white"/>
<path d="M126 124C127.105 124 128 123.105 128 122C128 120.895 127.105 120 126 120C124.895 120 124 120.895 124 122C124 123.105 124.895 124 126 124Z" fill="white"/>
<path d="M128 182C128 183.105 127.105 184 126 184C124.895 184 124 183.105 124 182C124 180.895 124.895 180 126 180C127.105 180 128 180.895 128 182Z" fill="white"/>
<path d="M126 24C127.105 24 128 23.1046 128 22C128 20.8954 127.105 20 126 20C124.895 20 124 20.8954 124 22C124 23.1046 124.895 24 126 24Z" fill="white"/>
<path d="M128 102C128 103.105 127.105 104 126 104C124.895 104 124 103.105 124 102C124 100.895 124.895 100 126 100C127.105 100 128 100.895 128 102Z" fill="white"/>
<path d="M126 164C127.105 164 128 163.105 128 162C128 160.895 127.105 160 126 160C124.895 160 124 160.895 124 162C124 163.105 124.895 164 126 164Z" fill="white"/>
<path d="M128 62C128 63.1046 127.105 64 126 64C124.895 64 124 63.1046 124 62C124 60.8954 124.895 60 126 60C127.105 60 128 60.8954 128 62Z" fill="white"/>
<path d="M126 144C127.105 144 128 143.105 128 142C128 140.895 127.105 140 126 140C124.895 140 124 140.895 124 142C124 143.105 124.895 144 126 144Z" fill="white"/>
</svg>
